<?xml version="1.0" encoding="UTF-8"?> <svg xmlns="http://www.w3.org/2000/svg" xmlns:xlink="http://www.w3.org/1999/xlink" width="283.071" height="59.326" viewBox="0 0 283.071 59.326"><defs><clipPath id="clip-path"><path id="Pfad_38" data-name="Pfad 38" d="M45,36.738h75V77.684H45Zm0,0"></path></clipPath><clipPath id="clip-path-2"><path id="Pfad_40" data-name="Pfad 40" d="M45,75.5h75V90.691H45Zm0,0"></path></clipPath></defs><g id="ferienwohnungen_gera_monteurzimmer_pension_hotel_möbilierte_wohnung" data-name="ferienwohnungen gera monteurzimmer pension hotel möbilierte wohnung" transform="translate(-2865.998 4242)"><g id="Gruppe_130" data-name="Gruppe 130"><g id="Gruppe_112" data-name="Gruppe 112" transform="translate(2820.998 -4278.738)" clip-path="url(#clip-path)"><path id="Pfad_37" data-name="Pfad 37" d="M94.48,36.691l-11.527,9.1L71.414,36.688,45.07,57.5V77.914h6.578V60.688L71.418,45.07l6.227,4.914L68.125,57.5V77.914h6.582V60.688L94.48,45.074l21.023,16.6,4.078-5.168Zm0,0" fill="#3a4afc"></path></g><g id="Gruppe_113" data-name="Gruppe 113" transform="translate(2820.998 -4278.738)"><g id="Gruppe_5" data-name="Gruppe 5" transform="translate(85.341 89.549)"><g id="Gruppe_4" data-name="Gruppe 4"><path id="Pfad_3" data-name="Pfad 3" d="M1.906,0V-19.656H14.594v2.891H5.5v5.5h7.359v2.844H5.5V0Zm0,0" fill="#0a2540"></path></g></g></g><g id="Gruppe_114" data-name="Gruppe 114" transform="translate(2820.998 -4278.738)"><g id="Gruppe_8" data-name="Gruppe 8" transform="translate(100.951 89.549)"><g id="Gruppe_7" data-name="Gruppe 7"><path id="Pfad_4" data-name="Pfad 4" d="M8.594.344A7.64,7.64,0,0,1,4.859-.547,6.594,6.594,0,0,1,2.3-3.078a7.524,7.524,0,0,1-.922-3.766,7.938,7.938,0,0,1,.906-3.844,6.656,6.656,0,0,1,2.531-2.625,7.414,7.414,0,0,1,3.813-.953,7.1,7.1,0,0,1,3.609.906,6.354,6.354,0,0,1,2.453,2.453,6.887,6.887,0,0,1,.891,3.469c0,.211-.008.43-.016.656s-.012.449-.031.688H4.938A3.625,3.625,0,0,0,6.078-3.531a3.586,3.586,0,0,0,2.484.922,3.253,3.253,0,0,0,1.828-.484,3.143,3.143,0,0,0,1.125-1.281h3.641a6.538,6.538,0,0,1-1.312,2.391,6.486,6.486,0,0,1-2.234,1.7A7.043,7.043,0,0,1,8.594.344Zm.031-11.687a3.835,3.835,0,0,0-2.344.75A3.437,3.437,0,0,0,5-8.344h6.938a3.076,3.076,0,0,0-1.016-2.187A3.369,3.369,0,0,0,8.625-11.344Zm0,0" fill="#0a2540"></path></g></g></g><g id="Gruppe_115" data-name="Gruppe 115" transform="translate(2820.998 -4278.738)"><g id="Gruppe_11" data-name="Gruppe 11" transform="translate(117.879 89.549)"><g id="Gruppe_10" data-name="Gruppe 10"><path id="Pfad_5" data-name="Pfad 5" d="M1.828,0V-13.922h3.2l.328,2.609a5.861,5.861,0,0,1,2.063-2.141,5.745,5.745,0,0,1,3.078-.812v3.8H9.484a5.884,5.884,0,0,0-2.109.359A2.8,2.8,0,0,0,5.938-8.844a5.032,5.032,0,0,0-.516,2.5V0Zm0,0" fill="#0a2540"></path></g></g></g><g id="Gruppe_116" data-name="Gruppe 116" transform="translate(2820.998 -4278.738)"><g id="Gruppe_14" data-name="Gruppe 14" transform="translate(129.137 89.549)"><g id="Gruppe_13" data-name="Gruppe 13"><path id="Pfad_6" data-name="Pfad 6" d="M3.766-16.094a2.325,2.325,0,0,1-1.625-.578,1.972,1.972,0,0,1-.625-1.5,1.911,1.911,0,0,1,.625-1.469,2.343,2.343,0,0,1,1.625-.578,2.29,2.29,0,0,1,1.609.578,1.9,1.9,0,0,1,.641,1.469,1.958,1.958,0,0,1-.641,1.5A2.273,2.273,0,0,1,3.766-16.094ZM1.969,0V-13.922H5.563V0Zm0,0" fill="#0a2540"></path></g></g></g><g id="Gruppe_117" data-name="Gruppe 117" transform="translate(2820.998 -4278.738)"><g id="Gruppe_17" data-name="Gruppe 17" transform="translate(136.773 89.549)"><g id="Gruppe_16" data-name="Gruppe 16"><path id="Pfad_7" data-name="Pfad 7" d="M8.594.344A7.64,7.64,0,0,1,4.859-.547,6.594,6.594,0,0,1,2.3-3.078a7.524,7.524,0,0,1-.922-3.766,7.938,7.938,0,0,1,.906-3.844,6.656,6.656,0,0,1,2.531-2.625,7.414,7.414,0,0,1,3.813-.953,7.1,7.1,0,0,1,3.609.906,6.354,6.354,0,0,1,2.453,2.453,6.887,6.887,0,0,1,.891,3.469c0,.211-.008.43-.016.656s-.012.449-.031.688H4.938A3.625,3.625,0,0,0,6.078-3.531a3.586,3.586,0,0,0,2.484.922,3.253,3.253,0,0,0,1.828-.484,3.143,3.143,0,0,0,1.125-1.281h3.641a6.538,6.538,0,0,1-1.312,2.391,6.486,6.486,0,0,1-2.234,1.7A7.043,7.043,0,0,1,8.594.344Zm.031-11.687a3.835,3.835,0,0,0-2.344.75A3.437,3.437,0,0,0,5-8.344h6.938a3.076,3.076,0,0,0-1.016-2.187A3.369,3.369,0,0,0,8.625-11.344Zm0,0" fill="#0a2540"></path></g></g></g><g id="Gruppe_118" data-name="Gruppe 118" transform="translate(2820.998 -4278.738)"><g id="Gruppe_20" data-name="Gruppe 20" transform="translate(153.702 89.549)"><g id="Gruppe_19" data-name="Gruppe 19"><path id="Pfad_8" data-name="Pfad 8" d="M1.828,0V-13.922H5l.281,2.359a4.921,4.921,0,0,1,1.859-1.969,5.55,5.55,0,0,1,2.891-.734,5.011,5.011,0,0,1,4,1.641,7,7,0,0,1,1.438,4.766V0H11.875V-7.531a4.451,4.451,0,0,0-.734-2.75,2.662,2.662,0,0,0-2.266-.953,3.186,3.186,0,0,0-2.484,1.078,4.24,4.24,0,0,0-.969,2.969V0Zm0,0" fill="#0a2540"></path></g></g></g><g id="Gruppe_119" data-name="Gruppe 119" transform="translate(2820.998 -4278.738)"><g id="Gruppe_23" data-name="Gruppe 23" transform="translate(170.911 89.549)"><g id="Gruppe_22" data-name="Gruppe 22"><path id="Pfad_9" data-name="Pfad 9" d="M4.547,0,.484-13.922H4.047L6.453-3.906,9.266-13.922H13.25L16.063-3.906,18.5-13.922h3.563L17.969,0H14.234L11.266-10.422,8.281,0Zm0,0" fill="#0a2540"></path></g></g></g><g id="Gruppe_122" data-name="Gruppe 122" transform="translate(2820.998 -4278.738)"><g id="Gruppe_26" data-name="Gruppe 26" transform="translate(193.567 89.549)"><g id="Gruppe_25" data-name="Gruppe 25"><path id="Pfad_10" data-name="Pfad 10" d="M8.5.344A7.257,7.257,0,0,1,4.859-.578,6.867,6.867,0,0,1,2.313-3.156a7.547,7.547,0,0,1-.937-3.812,7.408,7.408,0,0,1,.953-3.8,6.866,6.866,0,0,1,2.563-2.562,7.149,7.149,0,0,1,3.641-.937,7.045,7.045,0,0,1,3.609.938A6.755,6.755,0,0,1,14.7-10.766a7.518,7.518,0,0,1,.938,3.8A7.547,7.547,0,0,1,14.7-3.156,6.809,6.809,0,0,1,12.125-.578,7.24,7.24,0,0,1,8.5.344Zm0-3.125a3.3,3.3,0,0,0,2.438-1.047,4.305,4.305,0,0,0,1.047-3.141,4.259,4.259,0,0,0-1.047-3.125,3.288,3.288,0,0,0-2.406-1.047,3.334,3.334,0,0,0-2.453,1.047A4.288,4.288,0,0,0,5.047-6.969,4.335,4.335,0,0,0,6.078-3.828,3.282,3.282,0,0,0,8.5-2.781Zm0,0" fill="#0a2540"></path></g></g></g><g id="Gruppe_123" data-name="Gruppe 123" transform="translate(2820.998 -4278.738)"><g id="Gruppe_29" data-name="Gruppe 29" transform="translate(210.721 89.549)"><g id="Gruppe_28" data-name="Gruppe 28"><path id="Pfad_11" data-name="Pfad 11" d="M1.828,0V-20.219H5.422V-11.8a5.064,5.064,0,0,1,1.891-1.8,5.477,5.477,0,0,1,2.734-.672,4.984,4.984,0,0,1,4,1.641,7.058,7.058,0,0,1,1.422,4.766V0H11.906V-7.531a4.532,4.532,0,0,0-.719-2.75,2.662,2.662,0,0,0-2.266-.953,3.28,3.28,0,0,0-2.516,1.078,4.21,4.21,0,0,0-.984,2.969V0Zm0,0" fill="#0a2540"></path></g></g></g><g id="Gruppe_124" data-name="Gruppe 124" transform="translate(2820.998 -4278.738)"><g id="Gruppe_32" data-name="Gruppe 32" transform="translate(227.93 89.549)"><g id="Gruppe_31" data-name="Gruppe 31"><path id="Pfad_12" data-name="Pfad 12" d="M1.828,0V-13.922H5l.281,2.359a4.921,4.921,0,0,1,1.859-1.969,5.55,5.55,0,0,1,2.891-.734,5.011,5.011,0,0,1,4,1.641,7,7,0,0,1,1.438,4.766V0H11.875V-7.531a4.451,4.451,0,0,0-.734-2.75,2.662,2.662,0,0,0-2.266-.953,3.186,3.186,0,0,0-2.484,1.078,4.24,4.24,0,0,0-.969,2.969V0Zm0,0" fill="#0a2540"></path></g></g></g><g id="Gruppe_125" data-name="Gruppe 125" transform="translate(2820.998 -4278.738)"><g id="Gruppe_35" data-name="Gruppe 35" transform="translate(245.14 89.549)"><g id="Gruppe_34" data-name="Gruppe 34"><path id="Pfad_13" data-name="Pfad 13" d="M7.047.344A5.055,5.055,0,0,1,3.016-1.281,7.1,7.1,0,0,1,1.594-6.062v-7.859H5.172v7.516a4.49,4.49,0,0,0,.719,2.75A2.727,2.727,0,0,0,8.2-2.7a3.173,3.173,0,0,0,2.453-1.062,4.245,4.245,0,0,0,.969-2.969v-7.187h3.594V0H12.047l-.281-2.359A4.885,4.885,0,0,1,9.891-.391,5.418,5.418,0,0,1,7.047.344Zm0,0" fill="#0a2540"></path></g></g></g><g id="Gruppe_126" data-name="Gruppe 126" transform="translate(2820.998 -4278.738)"><g id="Gruppe_38" data-name="Gruppe 38" transform="translate(262.349 89.549)"><g id="Gruppe_37" data-name="Gruppe 37"><path id="Pfad_14" data-name="Pfad 14" d="M1.828,0V-13.922H5l.281,2.359a4.921,4.921,0,0,1,1.859-1.969,5.55,5.55,0,0,1,2.891-.734,5.011,5.011,0,0,1,4,1.641,7,7,0,0,1,1.438,4.766V0H11.875V-7.531a4.451,4.451,0,0,0-.734-2.75,2.662,2.662,0,0,0-2.266-.953,3.186,3.186,0,0,0-2.484,1.078,4.24,4.24,0,0,0-.969,2.969V0Zm0,0" fill="#0a2540"></path></g></g></g><g id="Gruppe_127" data-name="Gruppe 127" transform="translate(2820.998 -4278.738)"><g id="Gruppe_41" data-name="Gruppe 41" transform="translate(279.559 89.549)"><g id="Gruppe_40" data-name="Gruppe 40"><path id="Pfad_15" data-name="Pfad 15" d="M7.719-4.156a7.439,7.439,0,0,1-1.875-.219L4.8-3.344a5.093,5.093,0,0,0,1.3.422,24.891,24.891,0,0,0,2.641.344,7.261,7.261,0,0,1,4.031,1.313,3.648,3.648,0,0,1,1.266,2.953,4.491,4.491,0,0,1-.672,2.344,4.842,4.842,0,0,1-2.078,1.8,8.149,8.149,0,0,1-3.594.688,9.169,9.169,0,0,1-4.8-1.109A3.647,3.647,0,0,1,1.063,2.078a4,4,0,0,1,1.828-3.25,6.637,6.637,0,0,1-.969-.547A5.59,5.59,0,0,1,1.2-2.3v-.656L3.656-5.531A4.658,4.658,0,0,1,2.016-9.2,4.9,4.9,0,0,1,2.7-11.766a4.881,4.881,0,0,1,1.953-1.828,6.484,6.484,0,0,1,3.063-.672,6.777,6.777,0,0,1,2.188.344h5.281v2.188l-2.391.172A4.975,4.975,0,0,1,13.359-9.2a4.993,4.993,0,0,1-.672,2.547,4.731,4.731,0,0,1-1.953,1.828A6.341,6.341,0,0,1,7.719-4.156Zm0-2.75A2.744,2.744,0,0,0,9.531-7.5a2.07,2.07,0,0,0,.719-1.687,2.033,2.033,0,0,0-.719-1.672,2.765,2.765,0,0,0-1.812-.594,2.788,2.788,0,0,0-1.859.594,2.059,2.059,0,0,0-.687,1.672A2.1,2.1,0,0,0,5.859-7.5,2.767,2.767,0,0,0,7.719-6.906ZM4.359,1.719a1.654,1.654,0,0,0,.969,1.547A4.865,4.865,0,0,0,7.688,3.8,3.928,3.928,0,0,0,9.875,3.25a1.691,1.691,0,0,0,.844-1.484A1.676,1.676,0,0,0,10.172.5,3.741,3.741,0,0,0,8-.109Q6.84-.2,5.875-.359A3.012,3.012,0,0,0,4.7.609,2.05,2.05,0,0,0,4.359,1.719Zm0,0" fill="#0a2540"></path></g></g></g><g id="Gruppe_128" data-name="Gruppe 128" transform="translate(2820.998 -4278.738)"><g id="Gruppe_44" data-name="Gruppe 44" transform="translate(295.673 89.549)"><g id="Gruppe_43" data-name="Gruppe 43"><path id="Pfad_16" data-name="Pfad 16" d="M8.594.344A7.64,7.64,0,0,1,4.859-.547,6.594,6.594,0,0,1,2.3-3.078a7.524,7.524,0,0,1-.922-3.766,7.938,7.938,0,0,1,.906-3.844,6.656,6.656,0,0,1,2.531-2.625,7.414,7.414,0,0,1,3.813-.953,7.1,7.1,0,0,1,3.609.906,6.354,6.354,0,0,1,2.453,2.453,6.887,6.887,0,0,1,.891,3.469c0,.211-.008.43-.016.656s-.012.449-.031.688H4.938A3.625,3.625,0,0,0,6.078-3.531a3.586,3.586,0,0,0,2.484.922,3.253,3.253,0,0,0,1.828-.484,3.143,3.143,0,0,0,1.125-1.281h3.641a6.538,6.538,0,0,1-1.312,2.391,6.486,6.486,0,0,1-2.234,1.7A7.043,7.043,0,0,1,8.594.344Zm.031-11.687a3.835,3.835,0,0,0-2.344.75A3.437,3.437,0,0,0,5-8.344h6.938a3.076,3.076,0,0,0-1.016-2.187A3.369,3.369,0,0,0,8.625-11.344Zm0,0" fill="#0a2540"></path></g></g></g><g id="Gruppe_129" data-name="Gruppe 129" transform="translate(2820.998 -4278.738)"><g id="Gruppe_47" data-name="Gruppe 47" transform="translate(312.602 89.549)"><g id="Gruppe_46" data-name="Gruppe 46"><path id="Pfad_17" data-name="Pfad 17" d="M1.828,0V-13.922H5l.281,2.359a4.921,4.921,0,0,1,1.859-1.969,5.55,5.55,0,0,1,2.891-.734,5.011,5.011,0,0,1,4,1.641,7,7,0,0,1,1.438,4.766V0H11.875V-7.531a4.451,4.451,0,0,0-.734-2.75,2.662,2.662,0,0,0-2.266-.953,3.186,3.186,0,0,0-2.484,1.078,4.24,4.24,0,0,0-.969,2.969V0Zm0,0" fill="#0a2540"></path></g></g></g><g id="Gruppe_121" data-name="Gruppe 121" transform="translate(2820.998 -4278.738)" clip-path="url(#clip-path-2)"><path id="Pfad_39" data-name="Pfad 39" d="M94.48,49.7,82.953,58.8,71.414,49.7,45.07,70.508v20.41h6.578V73.7l19.77-15.617,6.227,4.914L68.125,70.5V90.922h6.582V73.691L94.48,58.082,115.5,74.68l4.078-5.164Zm0,0" fill="#3a4afc"></path></g><path id="Pfad_41" data-name="Pfad 41" d="M6.4.2A5.515,5.515,0,0,1,3.466-.565,5.22,5.22,0,0,1,1.508-2.708a6.992,6.992,0,0,1-.7-3.207,7.011,7.011,0,0,1,.71-3.219,5.273,5.273,0,0,1,2.024-2.184,5.943,5.943,0,0,1,3.11-.787,5.665,5.665,0,0,1,3.393.975,4.372,4.372,0,0,1,1.74,2.713H9.853A2.593,2.593,0,0,0,8.785-9.971a3.665,3.665,0,0,0-2.134-.571,4.153,4.153,0,0,0-2.189.56,3.646,3.646,0,0,0-1.421,1.6,5.706,5.706,0,0,0-.494,2.474,5.707,5.707,0,0,0,.5,2.478,3.614,3.614,0,0,0,1.39,1.581A3.912,3.912,0,0,0,6.5-1.308,3.437,3.437,0,0,0,9.22-2.345a4.627,4.627,0,0,0,1.06-2.773H7.005v-1.31h5V0H10.445l-.138-1.814a4.739,4.739,0,0,1-.945,1.1,3.635,3.635,0,0,1-1.257.684A5.629,5.629,0,0,1,6.4.2ZM14.255,0V-11.9h7.508v1.385H15.955v3.823h5.3v1.356h-5.3v3.95h5.808V0Zm9.7,0V-11.9h4.032a4.928,4.928,0,0,1,2.308.475,3.147,3.147,0,0,1,1.337,1.27,3.659,3.659,0,0,1,.436,1.79,3.626,3.626,0,0,1-.438,1.759,3.175,3.175,0,0,1-1.352,1.291,5,5,0,0,1-2.347.484H25.659V0Zm6.253,0L27.647-5.293h1.876L32.189,0ZM25.659-6.126h2.218A2.471,2.471,0,0,0,29.73-6.74a2.195,2.195,0,0,0,.592-1.589,2.114,2.114,0,0,0-.578-1.562,2.577,2.577,0,0,0-1.88-.58h-2.2ZM33.476,0l4.374-11.9H39.7L44.062,0H42.254L38.766-9.853,35.256,0Zm1.978-2.947.47-1.356h5.6l.467,1.356Z" transform="translate(3104 -4214)" fill="#778492"></path></g></g></svg> 